<?xml version="1.0"?>
<svg width="136" height="136" xmlns="http://www.w3.org/2000/svg" xmlns:svg="http://www.w3.org/2000/svg">
 <defs>
  <clipPath id="clip0_39057_124">
   <rect fill="white" height="136" id="svg_1" width="136"/>
  </clipPath>
 </defs>
 <g class="layer">
  <title>Layer 1</title>
  <g clip-path="url(#clip0_39057_124)" id="svg_2">
   <path d="m125.59,77.26l-11.69,-20.21c-0.28,-0.5 -0.71,-0.92 -1.22,-1.2c-0.51,-0.29 -1.09,-0.44 -1.68,-0.44l-18.08,0l0,-16.69c0,-0.45 -0.19,-0.89 -0.52,-1.21c-0.34,-0.33 -0.79,-0.51 -1.26,-0.51l-72.22,0c-0.47,0 -0.92,0.18 -1.26,0.51c-0.33,0.32 -0.52,0.76 -0.52,1.21l0,54.44c0,0.67 0.27,1.3 0.76,1.77c0.48,0.47 1.14,0.73 1.83,0.73l105.72,0c0.2,0 0.4,-0.04 0.59,-0.11c0.19,-0.08 0.36,-0.19 0.51,-0.33c0.14,-0.14 0.26,-0.3 0.33,-0.48c0.08,-0.19 0.12,-0.38 0.12,-0.58l0,-11.62c0,-1.85 -0.48,-3.66 -1.41,-5.28z" fill="#8B5CF6" id="svg_3"/>
   <path d="m127,82.54l0,7.77l-22.55,0c-1.4,0 -2.73,-0.53 -3.72,-1.48c-0.98,-0.95 -1.53,-2.24 -1.53,-3.58l0,-29.84l11.8,0c0.59,0 1.17,0.15 1.68,0.44c0.51,0.28 0.94,0.7 1.23,1.2l11.68,20.21c0.93,1.62 1.41,3.43 1.41,5.28z" fill="#A78BFA" id="svg_4"/>
   <path d="m119.54,95.67c0.02,1.91 -0.6,3.78 -1.75,5.33c-1.18,1.63 -2.86,2.86 -4.81,3.5c-1.94,0.64 -4.05,0.67 -6.01,0.07c-1.97,-0.59 -3.68,-1.78 -4.9,-3.38c-1.21,-1.6 -1.87,-3.54 -1.87,-5.52c0,-2.47 1.02,-4.85 2.84,-6.6c1.81,-1.75 4.27,-2.73 6.84,-2.73c2.56,0 5.02,0.98 6.83,2.73c1.82,1.75 2.83,4.13 2.83,6.6z" fill="#A5B4FC" id="svg_5"/>
   <path d="m92.92,38.72l0,51.87l-58.88,0c-1.4,0 -2.77,-0.27 -4.06,-0.78c-1.28,-0.51 -2.45,-1.27 -3.44,-2.22c-0.98,-0.94 -1.76,-2.07 -2.29,-3.31c-0.53,-1.24 -0.81,-2.57 -0.81,-3.91l0,-43.37l67.7,0c0.47,0 0.92,0.18 1.26,0.51c0.33,0.32 0.52,0.76 0.52,1.21z" fill="#A78BFA" id="svg_6"/>
   <path d="m119.54,95.67c0.02,1.91 -0.6,3.78 -1.75,5.33c-0.85,0.25 -1.73,0.37 -2.62,0.36c-2.56,0 -5.02,-0.98 -6.84,-2.73c-1.81,-1.75 -2.83,-4.12 -2.83,-6.6c-0.01,-1.93 0.61,-3.82 1.78,-5.38c1.44,-0.39 2.95,-0.44 4.42,-0.17c1.46,0.28 2.84,0.88 4.03,1.75c1.19,0.87 2.15,2 2.81,3.29c0.66,1.29 1.01,2.71 1,4.15z" fill="#C4B5FD" id="svg_7"/>
   <path d="m57.17,95.67c0,1.74 -0.5,3.44 -1.45,4.92c-0.95,1.47 -2.31,2.66 -3.92,3.43c-1.62,0.77 -3.42,1.09 -5.22,0.93c-1.79,-0.17 -3.5,-0.81 -4.93,-1.86c-1.43,-1.05 -2.54,-2.47 -3.18,-4.09c-0.64,-1.63 -0.8,-3.39 -0.46,-5.1c0.33,-1.7 1.16,-3.28 2.38,-4.56c1.22,-1.28 2.79,-2.2 4.52,-2.67c0.84,-0.24 1.72,-0.37 2.59,-0.36c1.28,0 2.53,0.25 3.71,0.72c1.17,0.47 2.24,1.16 3.14,2.03c0.9,0.87 1.61,1.9 2.09,3.03c0.49,1.14 0.74,2.35 0.73,3.58z" fill="#A5B4FC" id="svg_8"/>
   <path d="m57.17,95.67c0,1.91 -0.61,3.77 -1.75,5.33c-0.85,0.25 -1.73,0.37 -2.62,0.36c-2.57,0 -5.02,-0.98 -6.84,-2.73c-1.81,-1.75 -2.83,-4.12 -2.83,-6.6c-0.01,-1.92 0.62,-3.8 1.78,-5.36c0.84,-0.24 1.72,-0.37 2.59,-0.36c1.28,0 2.53,0.25 3.71,0.72c1.17,0.47 2.24,1.16 3.14,2.03c0.9,0.87 1.61,1.9 2.09,3.03c0.49,1.14 0.74,2.35 0.73,3.58z" fill="#C4B5FD" id="svg_9"/>
   <path d="m25.68,81.73l-27.4,0c-0.58,0 -1.13,-0.22 -1.53,-0.61c-0.41,-0.39 -0.63,-0.92 -0.63,-1.48c0,-0.55 0.22,-1.08 0.63,-1.47c0.4,-0.39 0.95,-0.61 1.53,-0.61l27.4,0c0.57,0 1.12,0.22 1.52,0.61c0.41,0.39 0.64,0.92 0.64,1.47c0,0.56 -0.23,1.09 -0.64,1.48c-0.4,0.39 -0.95,0.61 -1.52,0.61zm21.83,-9.48l-38.23,0c-0.58,0 -1.12,-0.21 -1.53,-0.61c-0.4,-0.39 -0.63,-0.92 -0.63,-1.47c0,-0.55 0.23,-1.08 0.63,-1.47c0.41,-0.39 0.95,-0.61 1.53,-0.61l38.23,0c0.57,0 1.12,0.22 1.52,0.61c0.41,0.39 0.64,0.92 0.64,1.47c0,0.55 -0.23,1.08 -0.64,1.47c-0.4,0.4 -0.95,0.61 -1.52,0.61zm-39.42,-10.99l-14.93,0c-0.57,0 -1.12,-0.22 -1.53,-0.61c-0.4,-0.39 -0.63,-0.92 -0.63,-1.47c0,-0.56 0.23,-1.09 0.63,-1.48c0.41,-0.39 0.96,-0.61 1.53,-0.61l14.93,0c0.57,0 1.12,0.22 1.52,0.61c0.41,0.39 0.64,0.92 0.64,1.48c0,0.55 -0.23,1.08 -0.64,1.47c-0.4,0.39 -0.95,0.61 -1.52,0.61zm23.94,-11.5l-26.36,0c-0.57,0 -1.12,-0.22 -1.52,-0.61c-0.41,-0.39 -0.64,-0.92 -0.64,-1.48c0,-0.55 0.23,-1.08 0.64,-1.47c0.4,-0.39 0.95,-0.61 1.52,-0.61l26.36,0c0.57,0 1.12,0.22 1.52,0.61c0.41,0.39 0.64,0.92 0.64,1.47c0,0.56 -0.23,1.09 -0.64,1.48c-0.4,0.39 -0.95,0.61 -1.52,0.61z" fill="#A5B4FC" id="svg_10"/>
  </g>
 </g>
</svg>